<svg width="100" height="100" viewBox="0 0 100 100" xmlns="http://www.w3.org/2000/svg">
  <defs>
    <linearGradient id="quranGrad" x1="0%" y1="0%" x2="100%" y2="100%">
      <stop offset="0%" stop-color="#A7E9AF"/>
      <stop offset="100%" stop-color="#4CB891"/>
    </linearGradient>
    <filter id="softShadowGreen" x="-20%" y="-20%" width="140%" height="140%">
      <feDropShadow dx="0" dy="6" stdDeviation="6" flood-color="#4CB891" flood-opacity="0.3"/>
    </filter>
  </defs>

  <rect x="10" y="25" width="80" height="55" rx="16" fill="url(#quranGrad)" filter="url(#softShadowGreen)"/>
  
  <path d="M50 78 Q 28 85 18 70 L 18 35 Q 32 30 50 45 Z" fill="#ffffff" fill-opacity="0.95" />
  
  <path d="M50 78 Q 72 85 82 70 L 82 35 Q 68 30 50 45 Z" fill="#f0fdf4" fill-opacity="0.95" />
  
  <line x1="50" y1="43" x2="50" y2="78" stroke="#4CB891" stroke-width="3.5" stroke-linecap="round" />
  
  <path d="M26 50 Q 36 46 44 52 M26 58 Q 36 54 44 60" stroke="#A7E9AF" stroke-width="2.5" stroke-linecap="round" fill="none"/>
  
  <path d="M74 50 Q 64 46 56 52 M74 58 Q 64 54 56 60" stroke="#A7E9AF" stroke-width="2.5" stroke-linecap="round" fill="none"/>
</svg>
