<svg width="200" height="200" viewBox="0 0 100 100" xmlns="http://www.w3.org/2000/svg">
  <defs>
    <radialGradient id="beadGrad" cx="35%" cy="35%" r="65%">
      <stop offset="0%" stop-color="#FFF3CD"/>
      <stop offset="40%" stop-color="#E5BE65"/>
      <stop offset="100%" stop-color="#9C7316"/>
    </radialGradient>
    
    <radialGradient id="largeBeadGrad" cx="35%" cy="35%" r="65%">
      <stop offset="0%" stop-color="#FFFFFF"/>
      <stop offset="40%" stop-color="#F2D17C"/>
      <stop offset="100%" stop-color="#B28622"/>
    </radialGradient>
    
    <filter id="shadow" x="-20%" y="-20%" width="140%" height="140%">
      <feDropShadow dx="0" dy="2" stdDeviation="2" flood-color="#000000" flood-opacity="0.2"/>
    </filter>
  </defs>

  <g filter="url(#shadow)">
    <circle cx="50" cy="50" r="35" fill="none" stroke="#C69B3F" stroke-width="0.5"/>

    <line x1="50" y1="22" x2="50" y2="35" stroke="#B28622" stroke-width="1.5"/>
    <path d="M47 38 L44 58 M48.5 38 L47 62 M50 38 L50 64 M51.5 38 L53 62 M53 38 L56 58" stroke="#D4AF37" stroke-width="1.2" stroke-linecap="round"/>
    <polygon points="45.5,35 54.5,35 53,39 47,39" fill="#B28622"/>

    <circle cx="50" cy="15" r="4.5" fill="url(#beadGrad)" transform="rotate(24 50 50)"/>
    <circle cx="50" cy="15" r="4.5" fill="url(#beadGrad)" transform="rotate(48 50 50)"/>
    <circle cx="50" cy="15" r="4.5" fill="url(#beadGrad)" transform="rotate(72 50 50)"/>
    <circle cx="50" cy="15" r="4.5" fill="url(#beadGrad)" transform="rotate(96 50 50)"/>
    <circle cx="50" cy="15" r="4.5" fill="url(#beadGrad)" transform="rotate(120 50 50)"/>
    <circle cx="50" cy="15" r="4.5" fill="url(#beadGrad)" transform="rotate(144 50 50)"/>
    <circle cx="50" cy="15" r="4.5" fill="url(#beadGrad)" transform="rotate(168 50 50)"/>
    <circle cx="50" cy="15" r="4.5" fill="url(#beadGrad)" transform="rotate(192 50 50)"/>
    <circle cx="50" cy="15" r="4.5" fill="url(#beadGrad)" transform="rotate(216 50 50)"/>
    <circle cx="50" cy="15" r="4.5" fill="url(#beadGrad)" transform="rotate(240 50 50)"/>
    <circle cx="50" cy="15" r="4.5" fill="url(#beadGrad)" transform="rotate(264 50 50)"/>
    <circle cx="50" cy="15" r="4.5" fill="url(#beadGrad)" transform="rotate(288 50 50)"/>
    <circle cx="50" cy="15" r="4.5" fill="url(#beadGrad)" transform="rotate(312 50 50)"/>
    <circle cx="50" cy="15" r="4.5" fill="url(#beadGrad)" transform="rotate(336 50 50)"/>

    <circle cx="50" cy="15" r="8" fill="url(#largeBeadGrad)"/>
  </g>
</svg>
